<?xml version="1.0" encoding="UTF-8" standalone="no"?>
<svg
   xmlns:dc="http://purl.org/dc/elements/1.1/"
   xmlns:cc="http://creativecommons.org/ns#"
   xmlns:rdf="http://www.w3.org/1999/02/22-rdf-syntax-ns#"
   xmlns:svg="http://www.w3.org/2000/svg"
   xmlns="http://www.w3.org/2000/svg"
   xmlns:sodipodi="http://sodipodi.sourceforge.net/DTD/sodipodi-0.dtd"
   xmlns:inkscape="http://www.inkscape.org/namespaces/inkscape"
   version="1.1"
   id="svg2"
   xml:space="preserve"
   width="1333.3333"
   height="1333.3333"
   viewBox="0 0 1333.3333 1333.3333"
   sodipodi:docname="grovi.ai"><metadata
     id="metadata8"><rdf:RDF><cc:Work
         rdf:about=""><dc:format>image/svg+xml</dc:format><dc:type
           rdf:resource="http://purl.org/dc/dcmitype/StillImage" /></cc:Work></rdf:RDF></metadata><defs
     id="defs6"><clipPath
       clipPathUnits="userSpaceOnUse"
       id="clipPath20"><path
         d="M 0,1000 H 1000 V 0 H 0 Z"
         id="path18" /></clipPath></defs><sodipodi:namedview
     pagecolor="#ffffff"
     bordercolor="#666666"
     borderopacity="1"
     objecttolerance="10"
     gridtolerance="10"
     guidetolerance="10"
     inkscape:pageopacity="0"
     inkscape:pageshadow="2"
     inkscape:window-width="640"
     inkscape:window-height="480"
     id="namedview4" /><g
     id="g10"
     inkscape:groupmode="layer"
     inkscape:label="grovi"
     transform="matrix(1.3333333,0,0,-1.3333333,0,1333.3333)"><path
       d="M 0,0 H 1000 V 1000 H 0 Z"
       style="fill:#ffffff;fill-opacity:1;fill-rule:nonzero;stroke:none"
       id="path12" /><g
       id="g14"><g
         id="g16"
         clip-path="url(#clipPath20)"><g
           id="g22"
           transform="translate(267.0327,569.0728)"><path
             d="M 0,0 C -27.035,0 -48.15,-9.241 -63.355,-27.718 -78.56,-46.2 -86.163,-68.849 -86.163,-95.667 c 0,-31.468 7.919,-57.019 23.758,-76.66 15.839,-19.639 38.117,-29.459 66.84,-29.459 19.64,0 34.316,3.801 44.032,11.404 5.91,4.642 8.87,10.661 8.87,18.055 v 24.709 c 0,9.078 -2.327,14.938 -6.969,17.581 -4.648,2.638 -15.735,3.96 -33.262,3.96 l -2.851,13.938 c 12.037,-0.846 27.401,-1.267 46.091,-1.267 18.69,0 34.261,0.421 46.725,1.267 l 2.534,-13.938 c -10.35,0 -16.898,-1.322 -19.64,-3.96 -2.747,-2.643 -4.118,-8.503 -4.118,-17.581 v -25.025 c 0,-16.264 -0.634,-24.392 -1.901,-24.392 -24.288,-13.729 -52.268,-20.59 -83.946,-20.59 -37.171,0 -66.364,10.295 -87.588,30.886 -21.225,20.59 -31.836,48.467 -31.836,83.629 0,35.162 11.72,63.617 35.162,85.371 23.441,21.748 53.005,32.628 88.697,32.628 12.671,0 27.877,-1.851 45.616,-5.544 17.74,-3.697 27.876,-5.653 30.41,-5.86 1.476,-3.168 2.218,-10.246 2.218,-21.224 0,-10.984 -0.53,-22.283 -1.584,-33.895 l -8.87,0.95 c -1.693,12.246 -5.177,21.748 -10.454,28.51 C 56.49,-15.418 48.517,-10.033 37.855,-6.019 27.188,-2.009 14.572,0 0,0"
             style="fill:#007200;fill-opacity:1;fill-rule:nonzero;stroke:none"
             id="path24" /></g><g
           id="g26"
           transform="translate(452.5,431.9102)"><path
             d="m 0,0 c 0,-32.786 -21.086,-61.362 -52.307,-76.37 -3.447,-1.657 -6.721,2.33 -3.763,4.574 C -33.452,-54.639 -21,-28.845 -21,0 c 0,28.844 -12.452,54.639 -35.07,71.795 -2.958,2.245 0.316,6.232 3.763,4.575 C -21.086,61.361 0,32.786 0,0"
             style="fill:#38b000;fill-opacity:1;fill-rule:nonzero;stroke:none"
             id="path28" /></g><g
           id="g30"
           transform="translate(465.5,471.626)"><path
             d="m 0,0 c 0,-6.256 1.056,-12.299 3.023,-18.008 0.452,-1.307 -1.278,-2.386 -2.604,-1.626 -13.211,7.568 -22.013,20.325 -22.405,34.853 -0.67,24.823 23.823,45.258 52.855,44.109 2.512,-0.099 4.976,-0.356 7.38,-0.759 1.581,-0.264 1.87,-2.076 0.456,-2.738 C 15.636,45.02 0,24.073 0,0"
             style="fill:#38b000;fill-opacity:1;fill-rule:nonzero;stroke:none"
             id="path32" /></g><g
           id="g34"
           transform="translate(642,424.1445)"><path
             d="m 0,0 c 0,-35.658 -24.721,-65.319 -57.32,-71.419 -0.028,-0.009 -0.046,-0.019 -0.074,-0.019 -0.296,-0.055 -0.593,-0.101 -0.89,-0.157 -3.179,-0.101 -6.182,4.125 -11.234,4.125 -5.561,0 -8.629,-5.116 -12.198,-3.949 l 0.436,-0.157 c -33.035,5.719 -58.21,35.593 -58.21,71.576 0,38.624 29.003,70.213 65.597,72.438 11.318,27.528 -22.607,43.137 -27.547,34.48 1.26,-6.646 -5.08,-3.318 -5.08,-3.318 0,0 -7.6,18.835 15.22,13.292 37.002,-12.727 38.309,-40.2 38.114,-46.383 C -22.663,62.779 0,34.138 0,0"
             style="fill:#38b000;fill-opacity:1;fill-rule:nonzero;stroke:none"
             id="path36" /></g><g
           id="g38"
           transform="translate(665.2637,352.5674)"><path
             d="m 0,0 c -1.704,-1.151 -3.867,0.592 -3.099,2.499 7.594,18.837 29.495,76.465 26.49,107.524 -3.627,37.482 -12.091,76.173 -45.946,108.818 -2.418,3.628 2.418,9.673 2.418,9.673 l -3.627,6.046 c 0,0 1.209,4.836 8.464,-2.418 7.254,-7.255 13.3,-25.392 15.718,-30.228 7.255,-6.045 49.573,-61.664 54.409,-74.964 14.51,-2.418 78.592,68.919 54.409,152.346 -3.627,4.837 -6.045,8.464 -6.045,8.464 0,0 -1.209,3.627 0,4.836 1.209,1.209 7.254,4.837 8.464,4.837 1.209,0 4.836,-1.209 4.836,-2.418 0,-1.21 1.209,-13.301 1.209,-13.301 0,0 18.137,-81.009 -16.927,-162.018 C 71.654,52.421 17.52,11.83 0,0"
             style="fill:#38b000;fill-opacity:1;fill-rule:nonzero;stroke:none"
             id="path40" /></g><g
           id="g42"
           transform="translate(750.3184,551.459)"><path
             d="m 0,0 c 0,-13.687 -6.771,-24.787 -15.113,-24.787 -8.343,0 -15.115,11.1 -15.115,24.787 0,8.089 2.359,15.271 6.01,19.793 0,0.012 0.024,0.024 0.061,0.072 0.35,0.327 2.164,1.814 4.28,3.652 3.481,3.059 7.786,7.085 7.786,8.524 0,0 12.152,-7.388 10.918,-22.441 C -0.423,6.65 0,3.397 0,0"
             style="fill:#38b000;fill-opacity:1;fill-rule:nonzero;stroke:none"
             id="path44" /></g><g
           id="g46"
           transform="translate(730.4414,574.9756)"><path
             d="M 0,0 C -2.116,-1.838 -3.93,-3.325 -4.28,-3.651 -2.999,-2.08 -1.548,-0.834 0,0"
             style="fill:#38b000;fill-opacity:1;fill-rule:nonzero;stroke:none"
             id="path48" /></g><g
           id="g50"
           transform="translate(851.0537,531.4893)"><path
             d="M 0,0 C 0,0 -1.011,2.022 -5.056,1.011 -9.101,0 -23.256,-14.156 -16.178,-23.256 c 5.632,-5.633 6.148,-9.353 5.602,-12.154 5.177,-6.583 6.107,-18.211 7.543,-28.292 2.022,-14.156 -5.056,-26.29 -9.101,-45.501 -4.044,-19.212 1.012,-34.379 -11.122,-51.568 -12.134,-17.19 -25.572,-21.356 -26.29,-19.212 -2.022,6.066 0,11.122 9.101,27.3 9.099,16.178 1.01,73.814 0,95.047 -0.931,19.567 6.723,27.969 18.22,27.585 0.829,1.041 1.305,2.558 0.992,4.772 -1.012,7.078 -6.068,19.212 9.099,29.323 4.045,4.045 2.023,6.067 2.023,6.067 0,0 6.067,2.023 7.078,-3.033 0,0 6.066,-3.034 3.033,-7.078"
             style="fill:#38b000;fill-opacity:1;fill-rule:nonzero;stroke:none"
             id="path52" /></g><path
           d="m 490,102 h -49 v 49 h 49 z"
           style="fill:#38b000;fill-opacity:1;fill-rule:nonzero;stroke:none"
           id="path54" /><path
           d="m 565,102 h -49 v 49 h 49 z"
           style="fill:#007200;fill-opacity:1;fill-rule:nonzero;stroke:none"
           id="path56" /></g></g></g></svg>
